<?xml version='1.0' encoding='utf-8'?>
<svg xmlns="http://www.w3.org/2000/svg" viewBox="0 0 800 850" width="800" height="850"><rect width="800" height="850" fill="#ffffff" /><circle cx="100" cy="400" r="15" fill="#ffffff" stroke="#000000" stroke-width="2" /><line x1="100" y1="415" x2="100" y2="470" style="stroke:#000000;stroke-width:1.5;" /><line x1="70" y1="430" x2="130" y2="430" style="stroke:#000000;stroke-width:1.5;" /><line x1="100" y1="470" x2="70" y2="520" style="stroke:#000000;stroke-width:1.5;" /><line x1="100" y1="470" x2="130" y2="520" style="stroke:#000000;stroke-width:1.5;" /><text x="100" y="540" style="font-family:Times New Roman, serif;font-size:16px;text-anchor:middle;font-weight:bold;fill:#000000;">Customer</text><line x1="130" y1="430" x2="300" y2="150" style="stroke:#000000;stroke-width:1.5;" /><line x1="130" y1="430" x2="300" y2="270" style="stroke:#000000;stroke-width:1.5;" /><line x1="130" y1="430" x2="300" y2="390" style="stroke:#000000;stroke-width:1.5;" /><line x1="130" y1="430" x2="300" y2="510" style="stroke:#000000;stroke-width:1.5;" /><line x1="130" y1="430" x2="300" y2="630" style="stroke:#000000;stroke-width:1.5;" /><line x1="130" y1="430" x2="300" y2="750" style="stroke:#000000;stroke-width:1.5;" /><ellipse cx="450" cy="150" rx="150" ry="40" style="fill:#ffffff;stroke:#000000;stroke-width:1.5;" /><text x="450" y="150" style="font-family:Times New Roman, serif;font-size:16px;text-anchor:middle;dominant-baseline:middle;fill:#000000;">Registration / Login</text><ellipse cx="450" cy="270" rx="150" ry="40" style="fill:#ffffff;stroke:#000000;stroke-width:1.5;" /><text x="450" y="270" style="font-family:Times New Roman, serif;font-size:16px;text-anchor:middle;dominant-baseline:middle;fill:#000000;">Browse Products</text><ellipse cx="450" cy="390" rx="150" ry="40" style="fill:#ffffff;stroke:#000000;stroke-width:1.5;" /><text x="450" y="390" style="font-family:Times New Roman, serif;font-size:16px;text-anchor:middle;dominant-baseline:middle;fill:#000000;">Add to Cart</text><ellipse cx="450" cy="510" rx="150" ry="40" style="fill:#ffffff;stroke:#000000;stroke-width:1.5;" /><text x="450" y="510" style="font-family:Times New Roman, serif;font-size:16px;text-anchor:middle;dominant-baseline:middle;fill:#000000;">Checkout &amp; Payment</text><ellipse cx="450" cy="630" rx="150" ry="40" style="fill:#ffffff;stroke:#000000;stroke-width:1.5;" /><text x="450" y="630" style="font-family:Times New Roman, serif;font-size:16px;text-anchor:middle;dominant-baseline:middle;fill:#000000;">Track Live Order</text><ellipse cx="450" cy="750" rx="150" ry="40" style="fill:#ffffff;stroke:#000000;stroke-width:1.5;" /><text x="450" y="750" style="font-family:Times New Roman, serif;font-size:16px;text-anchor:middle;dominant-baseline:middle;fill:#000000;">View Order History</text></svg>