<?xml version='1.0' encoding='utf-8'?>
<svg xmlns="http://www.w3.org/2000/svg" viewBox="0 0 1000 850" width="1000" height="850"><rect width="1000" height="850" fill="#ffffff" /><circle cx="100" cy="400" r="15" fill="#ffffff" stroke="#000000" stroke-width="2" /><line x1="100" y1="415" x2="100" y2="470" style="stroke:#000000;stroke-width:1.5;" /><line x1="70" y1="430" x2="130" y2="430" style="stroke:#000000;stroke-width:1.5;" /><line x1="100" y1="470" x2="70" y2="520" style="stroke:#000000;stroke-width:1.5;" /><line x1="100" y1="470" x2="130" y2="520" style="stroke:#000000;stroke-width:1.5;" /><text x="100" y="540" style="font-family:Times New Roman, serif;font-size:16px;text-anchor:middle;font-weight:bold;fill:#000000;">Picker</text><line x1="130" y1="430" x2="280" y2="150" style="stroke:#000000;stroke-width:1.5;" /><line x1="130" y1="430" x2="280" y2="300" style="stroke:#000000;stroke-width:1.5;" /><line x1="520" y1="300" x2="610" y2="250" style="stroke:#000000;stroke-width:1.5;" /><line x1="520" y1="300" x2="610" y2="350" style="stroke:#000000;stroke-width:1.5;" /><line x1="130" y1="430" x2="280" y2="500" style="stroke:#000000;stroke-width:1.5;" /><line x1="520" y1="500" x2="610" y2="430" style="stroke:#000000;stroke-width:1.5;" /><line x1="520" y1="500" x2="610" y2="500" style="stroke:#000000;stroke-width:1.5;" /><line x1="520" y1="500" x2="610" y2="570" style="stroke:#000000;stroke-width:1.5;" /><line x1="130" y1="430" x2="280" y2="700" style="stroke:#000000;stroke-width:1.5;" /><line x1="520" y1="700" x2="610" y2="660" style="stroke:#000000;stroke-width:1.5;" /><line x1="520" y1="700" x2="610" y2="740" style="stroke:#000000;stroke-width:1.5;" /><ellipse cx="400" cy="150" rx="120" ry="30" style="fill:#ffffff;stroke:#000000;stroke-width:1.5;" /><text x="400" y="150" style="font-family:Times New Roman, serif;font-size:14px;text-anchor:middle;dominant-baseline:middle;fill:#000000;">Login &amp; Auth</text><ellipse cx="400" cy="300" rx="120" ry="30" style="fill:#ffffff;stroke:#000000;stroke-width:1.5;" /><text x="400" y="300" style="font-family:Times New Roman, serif;font-size:14px;text-anchor:middle;dominant-baseline:middle;fill:#000000;">Task Management</text><ellipse cx="750" cy="250" rx="140" ry="30" style="fill:#ffffff;stroke:#000000;stroke-width:1.5;" /><text x="750" y="245" style="font-family:Times New Roman, serif;font-size:14px;text-anchor:middle;dominant-baseline:middle;fill:#000000;">View Pending</text><text x="750" y="265" style="font-family:Times New Roman, serif;font-size:14px;text-anchor:middle;dominant-baseline:middle;fill:#000000;">Order Queue</text><ellipse cx="750" cy="350" rx="140" ry="30" style="fill:#ffffff;stroke:#000000;stroke-width:1.5;" /><text x="750" y="350" style="font-family:Times New Roman, serif;font-size:14px;text-anchor:middle;dominant-baseline:middle;fill:#000000;">Accept Order Task</text><ellipse cx="400" cy="500" rx="120" ry="30" style="fill:#ffffff;stroke:#000000;stroke-width:1.5;" /><text x="400" y="500" style="font-family:Times New Roman, serif;font-size:14px;text-anchor:middle;dominant-baseline:middle;fill:#000000;">Picking Process</text><ellipse cx="750" cy="430" rx="140" ry="30" style="fill:#ffffff;stroke:#000000;stroke-width:1.5;" /><text x="750" y="425" style="font-family:Times New Roman, serif;font-size:14px;text-anchor:middle;dominant-baseline:middle;fill:#000000;">View Optimized</text><text x="750" y="445" style="font-family:Times New Roman, serif;font-size:14px;text-anchor:middle;dominant-baseline:middle;fill:#000000;">Aisle Route</text><ellipse cx="750" cy="500" rx="140" ry="30" style="fill:#ffffff;stroke:#000000;stroke-width:1.5;" /><text x="750" y="500" style="font-family:Times New Roman, serif;font-size:14px;text-anchor:middle;dominant-baseline:middle;fill:#000000;">Scan Item Barcodes</text><ellipse cx="750" cy="570" rx="140" ry="30" style="fill:#ffffff;stroke:#000000;stroke-width:1.5;" /><text x="750" y="565" style="font-family:Times New Roman, serif;font-size:14px;text-anchor:middle;dominant-baseline:middle;fill:#000000;">Flag</text><text x="750" y="585" style="font-family:Times New Roman, serif;font-size:14px;text-anchor:middle;dominant-baseline:middle;fill:#000000;">Out-of-Stock Items</text><ellipse cx="400" cy="700" rx="120" ry="30" style="fill:#ffffff;stroke:#000000;stroke-width:1.5;" /><text x="400" y="700" style="font-family:Times New Roman, serif;font-size:14px;text-anchor:middle;dominant-baseline:middle;fill:#000000;">Dispatch Handoff</text><ellipse cx="750" cy="660" rx="140" ry="30" style="fill:#ffffff;stroke:#000000;stroke-width:1.5;" /><text x="750" y="660" style="font-family:Times New Roman, serif;font-size:14px;text-anchor:middle;dominant-baseline:middle;fill:#000000;">Verify Final Checklist</text><ellipse cx="750" cy="740" rx="140" ry="30" style="fill:#ffffff;stroke:#000000;stroke-width:1.5;" /><text x="750" y="735" style="font-family:Times New Roman, serif;font-size:14px;text-anchor:middle;dominant-baseline:middle;fill:#000000;">Update Status</text><text x="750" y="755" style="font-family:Times New Roman, serif;font-size:14px;text-anchor:middle;dominant-baseline:middle;fill:#000000;">to Packed</text></svg>